<svg width="69" height="38" viewBox="0 0 69 38" fill="none" xmlns="http://www.w3.org/2000/svg">
<path fill-rule="evenodd" clip-rule="evenodd" d="M42.5272 26.7H46.4763C48.1331 26.7 49.4763 25.3568 49.4763 23.7V11.1689L66.0737 14.0954C67.7054 14.3831 68.7948 15.9391 68.5071 17.5708L65.3815 35.2973C65.0938 36.929 63.5378 38.0185 61.9061 37.7308L44.1796 34.6052C42.5479 34.3174 41.4584 32.7615 41.7461 31.1298L42.5272 26.7Z" fill="#505050"/>
<path fill-rule="evenodd" clip-rule="evenodd" d="M25.2511 0C23.5943 0 22.2511 1.34315 22.2511 3V5.52189L23.681 5.26977C25.3126 4.98206 26.8686 6.07157 27.1563 7.70325L30.0299 24H43.2511C44.908 24 46.2511 22.6569 46.2511 21V3C46.2511 1.34315 44.908 0 43.2511 0H25.2511Z" fill="#505050"/>
<rect y="12.9164" width="24" height="24" rx="3" transform="rotate(-10 0 12.9164)" fill="#505050"/>
</svg>
