<svg width="23" height="23" viewBox="0 0 23 23" fill="none" xmlns="http://www.w3.org/2000/svg">
<mask id="mask0_10_119" style="mask-type:alpha" maskUnits="userSpaceOnUse" x="5" y="5" width="13" height="13">
<path fill-rule="evenodd" clip-rule="evenodd" d="M14.1422 16.9706C14.9232 17.7516 16.1895 17.7516 16.9706 16.9706C17.7516 16.1895 17.7516 14.9232 16.9706 14.1421L14.1422 11.3137L16.9706 8.4853C17.7516 7.70425 17.7516 6.43792 16.9706 5.65687C16.1895 4.87582 14.9232 4.87582 14.1421 5.65687L11.3137 8.48528L8.4853 5.65685C7.70425 4.8758 6.43792 4.8758 5.65687 5.65685C4.87583 6.4379 4.87583 7.70423 5.65687 8.48527L8.48531 11.3137L5.65686 14.1422C4.87581 14.9232 4.87581 16.1895 5.65686 16.9706C6.43791 17.7516 7.70424 17.7516 8.48529 16.9706L11.3137 14.1421L14.1422 16.9706Z" fill="#505050"/>
</mask>
<g mask="url(#mask0_10_119)">
<rect x="3.24268" y="3.24265" width="16" height="16" fill="#505050"/>
</g>
</svg>
